HIERARCHY
ROOT hip
{
  OFFSET 0 0 0
  CHANNELS 6 Xposition Yposition Zposition Zrotation Yrotation Xrotation
  JOINT abdomen
  {
    OFFSET 0 20.6881 -0.73152
    CHANNELS 3 Zrotation Xrotation Yrotation
    JOINT chest
    {
      OFFSET 0 11.7043 -0.48768
      CHANNELS 3 Zrotation Xrotation Yrotation
      JOINT neck
      {
        OFFSET 0 22.1894 -2.19456
        CHANNELS 3 Zrotation Xrotation Yrotation
        JOINT head
        {
          OFFSET -0.24384 7.07133 1.2192
          CHANNELS 3 Zrotation Xrotation Yrotation
          JOINT leftEye
          {
            OFFSET 4.14528 8.04674 8.04672
            CHANNELS 3 Zrotation Xrotation Yrotation
            End Site
            {
              OFFSET 1 0 0
            }
          }
          JOINT rightEye
          {
            OFFSET -3.6576 8.04674 8.04672
            CHANNELS 3 Zrotation Xrotation Yrotation
            End Site
            {
              OFFSET 1 0 0
            }
          }
        }
      }
      JOINT rCollar
      {
        OFFSET -2.68224 19.2634 -4.8768
        CHANNELS 3 Zrotation Xrotation Yrotation
        JOINT rShldr
        {
          OFFSET -8.77824 -1.95073 1.46304
          CHANNELS 3 Zrotation Xrotation Yrotation
          JOINT rForeArm
          {
            OFFSET -28.1742 -1.7115 0.48768
            CHANNELS 3 Zrotation Xrotation Yrotation
            JOINT rHand
            {
              OFFSET -22.5879 0.773209 7.07136
              CHANNELS 3 Zrotation Xrotation Yrotation
              JOINT rThumb1
              {
                OFFSET -1.2192 -0.487915 3.41376
                CHANNELS 3 Zrotation Xrotation Yrotation
                JOINT rThumb2
                {
                  OFFSET -3.37035 -0.52449 3.41376
                  CHANNELS 3 Zrotation Xrotation Yrotation
                  End Site
                  {
                    OFFSET -1.78271 -1.18214 1.43049
                  }
                }
              }
              JOINT rIndex1
              {
                OFFSET -7.75947 0.938293 5.60832
                CHANNELS 3 Zrotation Xrotation Yrotation
                JOINT rIndex2
                {
                  OFFSET -2.54057 -0.884171 1.56538
                  CHANNELS 3 Zrotation Xrotation Yrotation
                  End Site
                  {
                    OFFSET -1.62519 -0.234802 1.16502
                  }
                }
              }
              JOINT rMid1
              {
                OFFSET -8.24714 1.18213 3.41376
                CHANNELS 3 Zrotation Xrotation Yrotation
                JOINT rMid2
                {
                  OFFSET -3.10165 -0.590103 1.0647
                  CHANNELS 3 Zrotation Xrotation Yrotation
                  End Site
                  {
                    OFFSET -2.48547 -0.328903 0.83742
                  }
                }
              }
              JOINT rRing1
              {
                OFFSET -8.82822 0.546677 1.51678
                CHANNELS 3 Zrotation Xrotation Yrotation
                JOINT rRing2
                {
                  OFFSET -2.60934 -0.819778 -0.0198488
                  CHANNELS 3 Zrotation Xrotation Yrotation
                  End Site
                  {
                    OFFSET -2.33842 -0.294052 0.168128
                  }
                }
              }
              JOINT rPinky1
              {
                OFFSET -8.27202 -0.0477905 -0.4584
                CHANNELS 3 Zrotation Xrotation Yrotation
                JOINT rPinky2
                {
                  OFFSET -1.82734 -0.647385 -0.700984
                  CHANNELS 3 Zrotation Xrotation Yrotation
                  End Site
                  {
                    OFFSET -1.69225 -0.51767 -0.607171
                  }
                }
              }
            }
          }
        }
      }
      JOINT lCollar
      {
        OFFSET 2.68224 19.2634 -4.8768
        CHANNELS 3 Zrotation Xrotation Yrotation
        JOINT lShldr
        {
          OFFSET 8.77824 -1.95073 1.46304
          CHANNELS 3 Zrotation Xrotation Yrotation
          JOINT lForeArm
          {
            OFFSET 28.1742 -1.7115 0.48768
            CHANNELS 3 Zrotation Xrotation Yrotation
            JOINT lHand
            {
              OFFSET 22.5879 0.773209 7.07136
              CHANNELS 3 Zrotation Xrotation Yrotation
              JOINT lThumb1
              {
                OFFSET 1.2192 -0.487915 3.41376
                CHANNELS 3 Zrotation Xrotation Yrotation
                JOINT lThumb2
                {
                  OFFSET 3.37035 -0.52449 3.41376
                  CHANNELS 3 Zrotation Xrotation Yrotation
                  End Site
                  {
                    OFFSET 1.78271 -1.18214 1.43049
                  }
                }
              }
              JOINT lIndex1
              {
                OFFSET 7.75947 0.938293 5.60832
                CHANNELS 3 Zrotation Xrotation Yrotation
                JOINT lIndex2
                {
                  OFFSET 2.54057 -0.884171 1.56538
                  CHANNELS 3 Zrotation Xrotation Yrotation
                  End Site
                  {
                    OFFSET 1.62519 -0.234802 1.16502
                  }
                }
              }
              JOINT lMid1
              {
                OFFSET 8.24714 1.18213 3.41376
                CHANNELS 3 Zrotation Xrotation Yrotation
                JOINT lMid2
                {
                  OFFSET 3.10165 -0.590103 1.0647
                  CHANNELS 3 Zrotation Xrotation Yrotation
                  End Site
                  {
                    OFFSET 2.48547 -0.328903 0.83742
                  }
                }
              }
              JOINT lRing1
              {
                OFFSET 8.82822 0.546677 1.51678
                CHANNELS 3 Zrotation Xrotation Yrotation
                JOINT lRing2
                {
                  OFFSET 2.60934 -0.819778 -0.0198488
                  CHANNELS 3 Zrotation Xrotation Yrotation
                  End Site
                  {
                    OFFSET 2.33842 -0.294052 0.168128
                  }
                }
              }
              JOINT lPinky1
              {
                OFFSET 8.27202 -0.0477905 -0.4584
                CHANNELS 3 Zrotation Xrotation Yrotation
                JOINT lPinky2
                {
                  OFFSET 1.82734 -0.647385 -0.700984
                  CHANNELS 3 Zrotation Xrotation Yrotation
                  End Site
                  {
                    OFFSET 1.69225 -0.51767 -0.607171
                  }
                }
              }
            }
          }
        }
      }
    }
  }
  JOINT rButtock
  {
    OFFSET -8.77824 4.35084 1.2192
    CHANNELS 3 Zrotation Xrotation Yrotation
    JOINT rThigh
    {
      OFFSET 0 -1.70687 -2.19456
      CHANNELS 3 Zrotation Xrotation Yrotation
      JOINT rShin
      {
        OFFSET 0 -36.8199 0.73152
        CHANNELS 3 Zrotation Xrotation Yrotation
        JOINT rFoot
        {
          OFFSET 0.73152 -45.1104 -5.12064
          CHANNELS 3 Zrotation Xrotation Yrotation
          End Site
          {
            OFFSET -1.1221 -3.69964 12.103
          }
        }
      }
    }
  }
  JOINT lButtock
  {
    OFFSET 8.77824 4.35084 1.2192
    CHANNELS 3 Zrotation Xrotation Yrotation
    JOINT lThigh
    {
      OFFSET 0 -1.70687 -2.19456
      CHANNELS 3 Zrotation Xrotation Yrotation
      JOINT lShin
      {
        OFFSET 0 -36.8199 0.73152
        CHANNELS 3 Zrotation Xrotation Yrotation
        JOINT lFoot
        {
          OFFSET -0.73152 -45.1104 -5.12064
          CHANNELS 3 Zrotation Xrotation Yrotation
          End Site
          {
            OFFSET 1.1221 -3.69964 12.103
          }
        }
      }
    }
  }
}
MOTION
Frames:	4
Frame Time:	0.03333
-0.018999999247171218 75.04040002822876 1.909999999043066 -2.2573999322474285 3.2279999088272704 2.2333999281644727 -3.520809905102306 5.459509795582354 3.4136700636776047 2.6126999695691446 -6.193539980399869 1.007029964456869 -5.753929795510808 9.900349810423373 -4.549679933038819 7.1500998628105155 -11.165100207902865 -7.560710345144172 -0.0 0.0 0.0 -0.0 0.0 0.0 6.999419985513336e-14 8.964470243463093e-14 7.032670069835506e-14 45.76539908081988 40.4768997196949 51.708998960713714 -18.68980008819544 -11.447999813135624 35.58660038718166 -0.6297240181247235 -21.948300633648223 -3.2466599856397456 -1.2104299568415998e-09 -1.3783500248424787e-09 6.581450239872123e-10 -2.104900033502597e-09 -2.2970699424952933e-09 1.1199599734583741e-09 -1.2104299568415998e-09 -1.3783500248424787e-09 6.581349853614989e-10 7.730910121524428 5.474879855648998 0.41731399283890674 -1.210439995467313e-09 -1.3783300469833856e-09 6.581470118338881e-10 2.90554006136521 0.9651829962377875 0.10290200252939893 -1.2104299568415998e-09 -1.3783399862167652e-09 6.581480057572261e-10 10.278599710243157 0.7318009818271524 0.025912300303053633 -1.2104299568415998e-09 -1.3783399862167652e-09 6.581540189934207e-10 2.221669932038622 -0.7334870246959406 -0.20891999872313852 6.987640198296262e-14 8.964270051384524e-14 7.001179855876748e-14 -52.402000199186965 47.01350003842382 -59.70999866768254 16.90000024261237 -9.545519775493919 -31.592298930369033 1.0251900500777575 -27.477099710152597 4.191459989846923 -1.0558599689391626e-09 -4.5578501536444225e-09 -4.3985401453432666e-10 -1.8094799766702185e-09 -7.910060166405196e-09 -7.851079960392136e-10 -1.0558599689391626e-09 -4.557839816841708e-09 -4.3984899522147e-10 -7.730910121524428 5.474879855648998 -0.41731399283890674 -1.0558599689391626e-09 -4.557829877608328e-09 -4.3984998914480794e-10 -2.90554006136521 0.9651829962377875 -0.10290200252939893 -1.0558700075648759e-09 -4.557839816841708e-09 -4.3985500845766464e-10 -10.278599710243157 0.7318009818271524 -0.025912300303053633 -1.0558599689391626e-09 -4.557839816841708e-09 -4.3985699630434055e-10 -2.221669932038622 -0.7334870246959406 0.20891999872313852 -2.0321699793705798e-16 0.0 -3.882510030490358e-19 4.157750018085148 -35.0468002917918 -2.4880199889124395 -1.3808199641920444 64.61619868058357 1.9937900618912556 -0.8846419925143789 -26.835099494211832 -1.409330027561324 2.0321699793705798e-16 0.0 3.882510030490358e-19 -5.228380036050531 -35.58410053794544 -0.5443779763202109 1.3915099572950549 65.22720008297622 -2.1317500647285814 6.009120177054471 -26.666899255711098 10.150500366133214
-0.022799999078415567 75.00309944152832 1.933999998436775 -2.2783999891808673 3.2544999755898623 2.2555999639577182 -3.4951700152883123 5.476659973701433 3.4257099796370447 2.6021400702254818 -6.2297101009233184 1.0076500175674592 -5.760260100210941 9.87799033240169 -4.556339794366405 7.170849977509015 -11.106399854628483 -7.572160303514052 -0.0 0.0 0.0 -0.0 0.0 0.0 6.256250041288736e-15 7.194929996013563e-14 9.154459805736138e-14 45.662601318716604 40.52669862893346 51.73680124573025 -18.698800569974225 -11.458299738404003 35.60739831320435 -0.6349340117184151 -22.033199885031483 -3.2605700927712995 -1.3523999785887516e-09 5.615189776256803e-10 3.394680058814689e-10 -2.343970004258819e-09 1.070230013167016e-09 5.645710180195458e-10 -1.3523999785887516e-09 5.615140080089905e-10 3.394680058814689e-10 7.730910121524428 5.474879855648998 0.41731399283890674 -1.3523999785887516e-09 5.615269787085507e-10 3.394739942695801e-10 2.90554006136521 0.9651829962377875 0.10290200252939893 -1.352390039355372e-09 5.615249908618749e-10 3.394770008876774e-10 10.278599710243157 0.7318009818271524 0.025912300303053633 -1.3523999785887516e-09 5.615249908618749e-10 3.394829892757886e-10 2.221669932038622 -0.7334870246959406 -0.20891999872313852 6.255950132322548e-15 7.194889957597849e-14 9.152559800917728e-14 -52.36369991341611 47.02289837872176 -59.72880217846758 16.909000724391156 -9.5384402844192 -31.598999345944815 1.0266500030128478 -27.494800145386684 4.1946198061116995 -7.721190082894518e-10 -4.649089930652896e-09 -7.398359807032619e-10 -1.3146199585896548e-09 -8.037629829262687e-09 -1.2982799583059697e-09 -7.721149828999331e-10 -4.649079991419516e-09 -7.398349867799239e-10 -7.730910121524428 5.474879855648998 -0.41731399283890674 -7.721180143661139e-10 -4.649079991419516e-09 -7.398300171632341e-10 -2.90554006136521 0.9651829962377875 -0.10290200252939893 -7.721270093723223e-10 -4.649079991419516e-09 -7.398320050099101e-10 -10.278599710243157 0.7318009818271524 -0.025912300303053633 -7.721159768232711e-10 -4.649079991419516e-09 -7.398310110865721e-10 -2.221669932038622 -0.7334870246959406 0.20891999872313852 -2.0321699793705798e-16 0.0 -3.882510030490358e-19 4.1076800357139 -35.08099904896605 -2.6193899264177607 -1.3877500448786686 64.68900166694674 1.9994100269177066 -0.8232669798497022 -26.88840058294732 -1.3019199667775845 2.0321699793705798e-16 0.0 3.882510030490358e-19 -5.228800092684486 -35.628401144902135 -0.5889699868945498 1.3994700091641759 65.31509778740512 -2.1407699698578178 6.033159881611977 -26.692599550010563 10.183800099657963
-0.03159999914714717 74.96790289878845 1.9599999985075556 -2.2644999138896567 3.293099935910543 2.266599983616024 -3.4845699885832757 5.496590038812707 3.451190000335777 2.584949978188441 -6.237859797263613 1.0143200174570939 -5.770589907556938 9.831769588514568 -4.575419927812836 7.215280358059948 -11.071300366257434 -7.602050065095675 -0.0 0.0 0.0 -0.0 0.0 0.0 -9.73658970634629e-15 3.8599101399402345e-14 2.082699957650233e-14 45.53439866799547 40.53220034630991 51.81749993077395 -18.699099390750412 -11.458500375210873 35.60799936985131 -0.6369969956520234 -22.066700255363102 -3.2660500389197655 -7.044049991210935e-10 5.71152977148167e-10 1.3912500316054098e-10 -1.2200099863268354e-09 1.040850036866332e-09 2.2862100379277698e-10 -7.044040051977555e-10 5.711470136081392e-10 1.3912799735459658e-10 7.730910121524428 5.474879855648998 0.41731399283890674 -7.044069869677695e-10 5.711579964610237e-10 1.3912700343125862e-10 2.90554006136521 0.9651829962377875 0.10290200252939893 -7.043979919615609e-10 5.711560086143478e-10 1.3913199789603184e-10 10.278599710243157 0.7318009818271524 0.025912300303053633 -7.044079808911075e-10 5.711599843076996e-10 1.3913799870818478e-10 2.221669932038622 -0.7334870246959406 -0.20891999872313852 -9.705349884146407e-15 3.8601100286974715e-14 2.0823899632497836e-14 -52.273500435236926 47.021300114455975 -59.80349712723085 16.911399828337125 -9.53465038320349 -31.59920083652533 1.028509948901207 -27.51719975076974 4.19865004460883 -4.32649014561307e-10 -2.0934999316008937e-09 -2.529910101161532e-10 -7.416450205706781e-10 -3.632860170006438e-09 -4.4763598700503066e-10 -4.326469770184642e-10 -2.0934999316008937e-09 -2.529910101161532e-10 -7.730910121524428 5.474879855648998 -0.41731399283890674 -4.32648020637969e-10 -2.0934899923675143e-09 -2.5298499687995856e-10 -2.90554006136521 0.9651829962377875 -0.10290200252939893 -4.3265398417799673e-10 -2.0934999316008937e-09 -2.529880034980559e-10 -10.278599710243157 0.7318009818271524 -0.025912300303053633 -4.326469770184642e-10 -2.0934899923675143e-09 -2.5298700957471795e-10 -2.221669932038622 -0.7334870246959406 0.20891999872313852 -2.0321699793705798e-16 0.0 -3.882510030490358e-19 4.048029859258063 -35.11999942912682 -2.7477099710152597 -1.394720039483255 64.7628974835771 2.005279934179098 -0.7703729810609184 -26.946600624865 -1.2099899961391498 2.0321699793705798e-16 0.0 3.882510030490358e-19 -5.229600078591024 -35.67649933703737 -0.6159579852959742 1.407490038631946 65.40320039750912 -2.1498400341887716 6.049510073824518 -26.732800335917965 10.199999600821942
-0.045399999453366036 74.92979764938354 1.9819999986793846 -2.2665000920994123 3.31489997875052 2.2860999602529986 -3.489010038430607 5.519299990916176 3.4900900620931155 2.561120088504501 -6.217989923194399 1.0270499959661168 -5.784979835477686 9.7617003853667 -4.606910088094356 7.2833901506896686 -11.059800035242425 -7.65037023837893 -0.0 0.0 0.0 -0.0 0.0 0.0 2.2015700707266477e-14 -1.0405900072298857e-14 -1.418260052644294e-13 45.38069892110267 40.493199966149135 51.95099939319643 -18.690500182585364 -11.448799799042161 35.588301104284994 -0.6358799929184619 -22.04860025406257 -3.2630799738478675 7.335549815613743e-10 -1.3494500141216941e-09 5.711589779603199e-11 1.2669800202933534e-09 -2.3851999321639656e-09 1.1210899897493813e-10 7.33558013027555e-10 -1.3494500141216941e-09 5.7114798268339376e-11 7.730910121524428 5.474879855648998 0.41731399283890674 7.335529937146983e-10 -1.3494399754959808e-09 5.710630022379984e-11 2.90554006136521 0.9651829962377875 0.10290200252939893 7.335619887209068e-10 -1.3494500141216941e-09 5.711189725459671e-11 10.278599710243157 0.7318009818271524 0.025912300303053633 7.335459865551657e-10 -1.3494399754959808e-09 5.711820245577188e-11 2.221669932038622 -0.7334870246959406 -0.20891999872313852 2.1992499658645763e-14 -1.0400699628076055e-14 -1.4209300083297297e-13 -52.13150080239236 47.008500339951375 -59.933796646027176 16.906999478964345 -9.534139826563031 -31.59280094927303 1.0307699944645408 -27.54460076217254 4.203549851564668 -3.744819869271973e-11 3.1089099042782047e-09 1.0206799529998284e-09 -9.056749968672091e-11 5.304259943304934e-09 1.766810052633039e-09 -3.745179855880939e-11 3.1089099042782047e-09 1.0206799529998284e-09 -7.730910121524428 5.474879855648998 -0.41731399283890674 -3.7446900380359525e-11 3.108920042296252e-09 1.0206799529998284e-09 -2.90554006136521 0.9651829962377875 -0.10290200252939893 -3.745379882952703e-11 3.1089099042782047e-09 1.0206799529998284e-09 -10.278599710243157 0.7318009818271524 -0.025912300303053633 -3.7450699031116784e-11 3.1089099042782047e-09 1.0206700137664488e-09 -2.221669932038622 -0.7334870246959406 0.20891999872313852 -2.0321699793705798e-16 0.0 -3.882510030490358e-19 3.9787700335268408 -35.16390047001708 -2.873010004782555 -1.4017299480058039 64.83779733801546 2.0113899652784974 -0.7259850223880336 -27.009800365255128 -1.133529977083971 2.0321699793705798e-16 0.0 3.882510030490358e-19 -5.230719802728083 -35.72869905776919 -0.6253129965813645 1.4155700456983653 65.49150108309904 -2.158960044278031 6.058130199443897 -26.78760065117627 10.199400251722274
